<svg id="Capa_1" enable-background="new 0 0 512.002 512.002" height="512" viewBox="0 0 512.002 512.002" width="512" xmlns="http://www.w3.org/2000/svg"><g><circle cx="451" cy="127.5" r="7.5"/><circle cx="361" cy="67.5" r="7.5"/><circle cx="451" cy="22.5" r="7.5"/><path d="m406 95c-4.142 0-7.5 3.357-7.5 7.5 0 43.343-33.605 78.961-76.125 82.229-3.362-11.39-13.91-19.729-26.375-19.729h-3.308c9.745-9.537 15.808-22.821 15.808-37.5v-60c0-28.948-23.551-52.5-52.5-52.5s-52.5 23.552-52.5 52.5v60c0 14.679 6.063 27.963 15.808 37.5h-3.308c-15.164 0-27.5 12.337-27.5 27.5v100c0 4.143 3.358 7.5 7.5 7.5h8.044c1.621 11.281 6.84 21.41 14.456 29.192v159.903l-24.872 8.29c-3.93 1.31-6.053 5.558-4.744 9.487 1.048 3.143 3.974 5.13 7.114 5.13.786 0 1.586-.125 2.373-.387l30-10c3.063-1.021 5.128-3.887 5.128-7.115v-154.576c6.824 3.251 14.452 5.076 22.5 5.076s15.676-1.825 22.5-5.076v154.576c0 3.229 2.066 6.095 5.128 7.115l30 10c.787.262 1.586.387 2.373.387 3.14 0 6.066-1.987 7.114-5.13 1.31-3.93-.814-8.178-4.744-9.487l-24.872-8.29v-159.903c7.616-7.782 12.835-17.911 14.456-29.192h8.046c4.142 0 7.5-3.357 7.5-7.5v-92.786c50.271-3.842 90-45.976 90-97.214 0-4.143-3.358-7.5-7.5-7.5zm-150-65c18.11 0 33.261 12.904 36.745 30h-73.491c3.485-17.096 18.636-30 36.746-30zm-37.5 45h75v25h-18.129c-4.389-6.2-11.546-10-19.371-10s-14.982 3.8-19.371 10h-18.129zm0 52.5v-12.5h22.5c3.026 0 5.756-1.819 6.922-4.612 1.365-3.273 4.536-5.388 8.079-5.388s6.713 2.114 8.079 5.388c1.166 2.793 3.896 4.612 6.922 4.612h22.5v12.5c0 20.678-16.822 37.5-37.5 37.5s-37.502-16.822-37.502-37.5zm37.5 202.5c-18.11 0-33.261-12.904-36.745-30h73.491c-3.485 17.096-18.636 30-36.746 30zm52.5-45h-105v-92.5c0-6.893 5.607-12.5 12.5-12.5h80c6.893 0 12.5 5.607 12.5 12.5z"/><path d="m406 0c-12.407 0-22.5 10.094-22.5 22.5s10.094 22.5 22.5 22.5 22.5-10.094 22.5-22.5-10.093-22.5-22.5-22.5zm0 30c-4.136 0-7.5-3.364-7.5-7.5s3.364-7.5 7.5-7.5 7.5 3.364 7.5 7.5-3.364 7.5-7.5 7.5z"/><path d="m451 45c-12.407 0-22.5 10.094-22.5 22.5s10.094 22.5 22.5 22.5 22.5-10.094 22.5-22.5-10.093-22.5-22.5-22.5zm0 30c-4.136 0-7.5-3.364-7.5-7.5s3.364-7.5 7.5-7.5 7.5 3.364 7.5 7.5-3.364 7.5-7.5 7.5z"/><path d="m151.002 135h-90c-12.407 0-22.5 10.094-22.5 22.5v30c0 4.143 3.358 7.5 7.5 7.5h22.498v45h-22.498c-4.142 0-7.5 3.357-7.5 7.5v30c0 12.406 10.093 22.5 22.5 22.5h90c12.406 0 22.499-10.094 22.499-22.5v-120c-.001-12.406-10.094-22.5-22.499-22.5zm-82.502 142.5c0 4.136-3.364 7.5-7.499 7.5-4.136 0-7.5-3.364-7.5-7.5v-22.5h14.999zm0-97.5h-14.998v-22.5c0-4.136 3.364-7.5 7.5-7.5 4.135 0 7.499 3.364 7.499 7.5v22.5zm90 97.5c0 4.136-3.364 7.5-7.499 7.5h-68.791c.833-2.347 1.29-4.871 1.29-7.5v-120c0-2.629-.458-5.153-1.29-7.5h68.792c4.135 0 7.499 3.364 7.499 7.5v120z"/><path d="m136.002 165h-30c-4.142 0-7.5 3.357-7.5 7.5s3.358 7.5 7.5 7.5h30c4.142 0 7.5-3.357 7.5-7.5s-3.358-7.5-7.5-7.5z"/><path d="m136.002 195h-30c-4.142 0-7.5 3.357-7.5 7.5s3.358 7.5 7.5 7.5h30c4.142 0 7.5-3.357 7.5-7.5s-3.358-7.5-7.5-7.5z"/><path d="m136.002 225h-30c-4.142 0-7.5 3.357-7.5 7.5s3.358 7.5 7.5 7.5h30c4.142 0 7.5-3.357 7.5-7.5s-3.358-7.5-7.5-7.5z"/><path d="m136.002 255h-30c-4.142 0-7.5 3.357-7.5 7.5s3.358 7.5 7.5 7.5h30c4.142 0 7.5-3.357 7.5-7.5s-3.358-7.5-7.5-7.5z"/></g></svg>